<svg width="181" height="42" fill="none" xmlns="http://www.w3.org/2000/svg"><path d="M65.473 17.788c-.936-.352-2.155-.705-3.63-1.058-1.43-.305-2.483-.634-3.163-.963-.702-.33-1.03-.823-1.03-1.481 0-.658.304-1.2.89-1.599.609-.4 1.523-.61 2.787-.61 1.78 0 3.584.516 5.364 1.527l1.382-3.408c-.89-.565-1.92-.988-3.091-1.27a14.36 14.36 0 00-3.631-.446c-1.78 0-3.28.258-4.498.799-1.218.54-2.131 1.27-2.74 2.186a5.384 5.384 0 00-.914 3.056c0 1.293.328 2.327 1.008 3.103a5.948 5.948 0 002.412 1.692c.937.353 2.155.706 3.63 1.058a22.7 22.7 0 012.273.611c.562.188 1.03.423 1.382.729.351.306.539.682.539 1.152 0 .635-.305 1.128-.914 1.504-.609.376-1.546.564-2.81.564-1.148 0-2.296-.188-3.42-.564-1.148-.376-2.132-.87-2.952-1.48l-1.522 3.384c.866.659 2.014 1.2 3.443 1.622a15.51 15.51 0 004.427.635c1.78 0 3.28-.258 4.497-.8 1.242-.54 2.155-1.269 2.788-2.185.609-.917.937-1.928.937-3.033 0-1.293-.328-2.327-1.008-3.08a6.404 6.404 0 00-2.436-1.645zm23.659-8.979h-4.99l-8.572 9.073V8.81h-4.451v19.416h4.45v-4.913l2.6-2.703 6.208 7.616H89.6L81.098 17.46l8.034-8.65zm12.344 8.627L96.3 8.809h-4.755L99.04 21.29v6.934h4.474v-6.887l7.519-12.53h-4.38l-5.177 8.628zm11.454-4.96h6.208v15.75h4.474v-15.75h6.184V8.809H112.93v3.667zm23.94 7.64h8.994v-3.48h-8.994v-4.23h10.189V8.808h-14.64v19.416h14.991V24.63h-10.54v-4.514zm17.731-11.307h-4.474v19.416h14.172v-3.667h-9.698V8.808zm16.702 15.749V8.808h-4.474v19.418H181v-3.668h-9.697z" fill="#444"/><path d="M41.423 10.68c-3.865-3.864-9.345-5.125-14.265-3.787a14.63 14.63 0 00-6.673 3.945 14.636 14.636 0 00-4.143 9.689 14.684 14.684 0 004.299 10.947 14.66 14.66 0 0011.123 4.283l-.178 5.556 9.842-9.847c5.739-5.74 5.736-15.048-.005-20.787zm-9.766 16.69a6.635 6.635 0 01-5.696-3.227 14.633 14.633 0 003.435-9.653 6.637 6.637 0 018.899 6.242 6.638 6.638 0 01-6.638 6.639z" fill="url(#paint0_linear_301_5)"/><path d="M29.396 14.49a14.634 14.634 0 01-3.435 9.653 6.617 6.617 0 01-.94-3.41 6.639 6.639 0 014.375-6.243z" fill="url(#paint1_linear_301_5)"/><path d="M27.158 6.893a14.684 14.684 0 00-2.062-2.584C19.358-1.434 10.05-1.437 4.308 4.302-1.434 10.04-1.436 19.348 4.3 25.09l9.841 9.847-.177-5.556c1.547.077 3.103-.09 4.607-.498a14.629 14.629 0 007.388-4.739 14.633 14.633 0 003.435-9.652 14.628 14.628 0 00-2.237-7.598zM8.06 14.095a6.639 6.639 0 0112.424-3.256 14.637 14.637 0 00-4.143 9.688 6.64 6.64 0 01-8.282-6.432z" fill="url(#paint2_linear_301_5)"/><path d="M21.337 14.095a6.637 6.637 0 01-4.995 6.432 14.642 14.642 0 014.143-9.689 6.61 6.61 0 01.852 3.257z" fill="url(#paint3_linear_301_5)"/><defs><linearGradient id="paint0_linear_301_5" x1="17.984" y1="15.106" x2="43.51" y2="29.703" gradientUnits="userSpaceOnUse"><stop stop-color="#2D82DD"/><stop offset="1" stop-color="#25DEBE"/></linearGradient><linearGradient id="paint1_linear_301_5" x1="25.409" y1="18.487" x2="28.549" y2="19.635" gradientUnits="userSpaceOnUse"><stop stop-color="#2D82DD"/><stop offset="1" stop-color="#25DEBE"/></linearGradient><linearGradient id="paint2_linear_301_5" x1=".119" y1="11.759" x2="27.735" y2="21.859" gradientUnits="userSpaceOnUse"><stop stop-color="#FE7316"/><stop offset="1" stop-color="#EB4E91"/></linearGradient><linearGradient id="paint3_linear_301_5" x1="17.841" y1="15.355" x2="43.392" y2="29.967" gradientUnits="userSpaceOnUse"><stop stop-color="#2D82DD"/><stop offset="1" stop-color="#25DEBE"/></linearGradient></defs></svg>