<svg width="28" height="28" fill="none" xmlns="http://www.w3.org/2000/svg"><path d="M4.657 21.516l1.335-4.881a9.452 9.452 0 01-1.248-4.71c-.01-5.207 4.193-9.436 9.36-9.436 2.506 0 4.86.978 6.633 2.762a9.4 9.4 0 012.745 6.675c0 5.198-4.203 9.427-9.37 9.427a9.247 9.247 0 01-4.479-1.15l-4.976 1.313zm5.196-3.011l.286.173a7.76 7.76 0 003.965 1.093c4.289 0 7.787-3.52 7.787-7.835 0-2.091-.81-4.067-2.278-5.544a7.743 7.743 0 00-5.51-2.301c-4.3 0-7.797 3.52-7.797 7.835 0 1.477.41 2.925 1.192 4.172l.18.298-.79 2.896 2.964-.787z" fill="#fff"/><path d="M4.982 21.19l1.286-4.718a9.136 9.136 0 01-1.21-4.546c0-5.016 4.06-9.101 9.045-9.101 2.421 0 4.69.95 6.405 2.666a9.083 9.083 0 012.65 6.435c0 5.016-4.06 9.101-9.046 9.101a8.98 8.98 0 01-4.327-1.113L4.982 21.19z" fill="url(#paint0_linear_301_24)"/><g filter="url(#filter0_d_301_24)"><path d="M4.657 21.516l1.335-4.881a9.452 9.452 0 01-1.248-4.71c-.01-5.207 4.193-9.436 9.36-9.436 2.506 0 4.86.978 6.633 2.762a9.4 9.4 0 012.745 6.675c0 5.198-4.203 9.427-9.37 9.427a9.247 9.247 0 01-4.479-1.15l-4.976 1.313zm5.196-3.011l.286.173a7.76 7.76 0 003.965 1.093c4.289 0 7.787-3.52 7.787-7.835 0-2.091-.81-4.067-2.278-5.544a7.743 7.743 0 00-5.51-2.301c-4.3 0-7.797 3.52-7.797 7.835 0 1.477.41 2.925 1.192 4.172l.18.298-.79 2.896 2.964-.787z" fill="url(#paint1_linear_301_24)"/><path d="M3.235 22.926l.458-1.673L4.92 16.76a10.452 10.452 0 01-1.177-4.834c-.01-5.754 4.635-10.437 10.36-10.437 2.772 0 5.381 1.085 7.342 3.057a10.4 10.4 0 013.035 7.38c0 5.743-4.643 10.427-10.367 10.427l-10.879.573zm0 0l1.678-.443m-1.678.443l1.678-.443m0 0l4.6-1.214m-4.6 1.214l4.6-1.214m0 0a10.245 10.245 0 004.6 1.084l-4.6-1.084zm-1.203-3.39l.333-1.22.114-.415-.224-.368-.18-.298h0l-.008-.012a6.849 6.849 0 01-1.04-3.64c0-3.768 3.056-6.835 6.798-6.835 1.808 0 3.517.717 4.8 2.006a6.823 6.823 0 011.988 4.839c0 3.768-3.056 6.834-6.786 6.835a6.76 6.76 0 01-3.452-.951l-.283-.171-.472-.285-.402.201-1.186.315z" stroke="#20B038" stroke-width="2"/></g><path fill-rule="evenodd" clip-rule="evenodd" d="M11.768 7.975c-.171-.394-.362-.403-.524-.403-.143-.01-.296-.01-.458-.01a.867.867 0 00-.629.297c-.22.24-.82.806-.82 1.967 0 1.16.84 2.282.954 2.435.114.154 1.62 2.61 4.003 3.559 1.982.786 2.383.633 2.812.584.428-.047 1.381-.565 1.582-1.122.19-.546.19-1.026.133-1.122-.057-.096-.22-.153-.448-.278-.238-.115-1.382-.69-1.601-.767-.22-.077-.372-.115-.524.115-.153.24-.6.768-.744.92-.133.154-.276.173-.505.058-.239-.114-.99-.364-1.887-1.17-.696-.623-1.163-1.4-1.306-1.63-.133-.24-.019-.364.105-.48.105-.105.239-.278.353-.412.114-.134.152-.24.238-.393.076-.153.038-.298-.02-.412-.056-.106-.505-1.266-.714-1.736z" fill="#fff"/><defs><linearGradient id="paint0_linear_301_24" x1="14.068" y1="21.189" x2="14.068" y2="2.821" gradientUnits="userSpaceOnUse"><stop stop-color="#20B038"/><stop offset="1" stop-color="#60D66A"/></linearGradient><linearGradient id="paint1_linear_301_24" x1="14.068" y1="21.518" x2="14.068" y2="2.492" gradientUnits="userSpaceOnUse"><stop stop-color="#F9F9F9"/><stop offset="1" stop-color="#fff"/></linearGradient><filter id="filter0_d_301_24" x=".728" y=".489" width="26.753" height="26.961" filterUnits="userSpaceOnUse" color-interpolation-filters="sRGB"><feFlood flood-opacity="0" result="BackgroundImageFix"/><feColorMatrix in="SourceAlpha" values="0 0 0 0 0 0 0 0 0 0 0 0 0 0 0 0 0 0 127 0" result="hardAlpha"/><feOffset dy="2"/><feGaussianBlur stdDeviation="1"/><feComposite in2="hardAlpha" operator="out"/><feColorMatrix values="0 0 0 0 0 0 0 0 0 0 0 0 0 0 0 0 0 0 0.25 0"/><feBlend in2="BackgroundImageFix" result="effect1_dropShadow_301_24"/><feBlend in="SourceGraphic" in2="effect1_dropShadow_301_24" result="shape"/></filter></defs></svg>