<svg width="46" height="104" fill="none" xmlns="http://www.w3.org/2000/svg"><path d="M.069 103.5l5.773.091-2.808-5.045L.069 103.5zM13.996 1.635a.5.5 0 00.1-.995l-.1.995zm5.975.15a.5.5 0 00-.283.958l.283-.959zm3.352 2.288a.5.5 0 00.403-.915l-.403.915zm5.63 2.01a.5.5 0 10-.569.823l.569-.822zM31.43 9.3a.5.5 0 00.664-.748l-.664.748zm4.778 3.6a.5.5 0 10-.782.623l.782-.623zm1.47 3.784a.5.5 0 10.843-.536l-.844.536zm3.66 4.74a.5.5 0 00-.914.405l.914-.405zm.49 4.03a.5.5 0 10.949-.32l-.948.32zm2.469 5.45a.5.5 0 00-.982.192l.982-.191zm-.394 4.044a.5.5 0 00.994-.11l-.994.11zm1.298 5.84a.5.5 0 10-1-.007l1 .007zm-1.175 3.889a.5.5 0 10.997.081l-.997-.081zm.19 5.984a.5.5 0 10-.982-.188l.982.188zm-1.846 3.616a.5.5 0 10.967.254l-.967-.254zm-.834 5.942a.5.5 0 10-.938-.348l.938.349zm-2.408 3.262a.5.5 0 10.914.406l-.914-.406zm-1.742 5.73a.5.5 0 00-.874-.485l.874.486zm-2.869 2.879a.5.5 0 00.846.534l-.846-.534zm-2.53 5.427a.5.5 0 10-.8-.6l.8.6zm-3.222 2.463a.5.5 0 10.768.64l-.768-.64zm-3.2 5.07a.5.5 0 00-.721-.694l.72.693zM22.08 87.1a.5.5 0 00.689.725l-.69-.725zm-3.743 4.673a.5.5 0 10-.642-.767l.642.767zm-3.699 1.686a.5.5 0 10.61.792l-.61-.792zm-4.193 4.28a.5.5 0 00-.565-.825l.565.825zm-3.842 1.334a.5.5 0 10.536.845l-.536-.845zm-4.54 3.889a.5.5 0 00-.493-.87l.493.87zM12.05 1.499c.656.026 1.306.072 1.947.136l.1-.995A33.448 33.448 0 0012.088.5l-.039 1zm7.64 1.244a30.22 30.22 0 013.634 1.33l.403-.915a31.226 31.226 0 00-3.755-1.374l-.283.96zm8.695 4.163A31.867 31.867 0 0131.43 9.3l.664-.748a32.87 32.87 0 00-3.141-2.467l-.569.822zm7.042 6.616c.8 1.004 1.55 2.059 2.251 3.161l.844-.536a37.345 37.345 0 00-2.313-3.248l-.782.623zm4.998 8.306a41.844 41.844 0 011.405 3.624l.948-.318a42.859 42.859 0 00-1.439-3.711l-.914.405zm2.891 9.267c.246 1.26.443 2.545.588 3.852l.994-.11a48.246 48.246 0 00-.6-3.934l-.982.192zm.886 9.685a52.18 52.18 0 01-.175 3.896l.997.081c.11-1.336.168-2.66.178-3.97l-1-.007zm-.967 9.692a57.111 57.111 0 01-.864 3.804l.967.254a58.37 58.37 0 00.88-3.87l-.983-.188zm-2.636 9.398a62.658 62.658 0 01-1.47 3.61l.914.406a63.633 63.633 0 001.494-3.668l-.938-.348zm-4.086 8.855a69.218 69.218 0 01-1.995 3.364l.846.534a70.236 70.236 0 002.023-3.412l-.874-.486zm-5.325 8.19a77.264 77.264 0 01-2.422 3.064l.768.64a78.133 78.133 0 002.454-3.103l-.8-.6zm-6.343 7.44A86.775 86.775 0 0122.08 87.1l.689.725a87.928 87.928 0 002.794-2.777l-.72-.693zm-7.148 6.65a98.465 98.465 0 01-3.057 2.454l.61.792a99.198 99.198 0 003.089-2.478l-.642-.767zm-7.815 5.909a111.607 111.607 0 01-3.277 2.16l.536.844a112.81 112.81 0 003.306-2.179l-.565-.825zM.07 103.5l11.545.182L6 93.592.07 103.5zM13.946 2.132a1 1 0 10.2-1.99l-.2 1.99zm6.167-.827a1 1 0 10-.566 1.918l.566-1.918zM23.12 4.53a1 1 0 10.806-1.83l-.806 1.83zm6.116 1.141A1 1 0 0028.1 7.318l1.137-1.646zm1.862 4a1 1 0 001.327-1.495l-1.328 1.496zm5.5 2.915a1 1 0 00-1.564 1.247l1.564-1.246zm.656 4.364a1 1 0 101.688-1.072l-1.688 1.072zm4.54 4.27a1 1 0 10-1.828.809l1.828-.81zm-.44 4.39a1 1 0 101.896-.636l-1.896.636zm3.433 5.197a1 1 0 00-1.963.383l1.962-.383zm-1.382 4.194a1 1 0 101.988-.22l-1.988.22zM45.7 40.79a1 1 0 00-2-.014l2 .014zm-2.173 3.844a1 1 0 101.993.163l-1.993-.163zm1.18 6.119a1 1 0 10-1.965-.376l1.964.376zm-2.821 3.395a1 1 0 001.934.508l-1.934-.508zm.117 6.243a1 1 0 10-1.875-.696l1.875.697zm-3.333 2.886a1 1 0 101.828.81l-1.828-.81zm-.848 6.176a1 1 0 10-1.748-.971l1.748.97zm-3.728 2.368a1 1 0 101.69 1.068l-1.69-1.068zm-1.708 5.994a1 1 0 00-1.6-1.2l1.6 1.2zm-4.007 1.843a1 1 0 101.537 1.28l-1.537-1.28zm-2.455 5.736a1 1 0 10-1.442-1.387l1.442 1.387zm-4.189 1.343a1 1 0 101.378 1.45l-1.378-1.45zm-3.078 5.419a1 1 0 10-1.283-1.535l1.283 1.535zm-4.324.906a1 1 0 101.22 1.584l-1.22-1.584zm-3.605 5.089a1 1 0 10-1.13-1.65l1.13 1.65zm-4.392.499a1 1 0 001.07 1.689l-1.07-1.69zm-4.026 4.745a1 1 0 10-.987-1.739l.987 1.739zM12.029 1.999c.647.025 1.286.07 1.918.133l.198-1.99a33.95 33.95 0 00-2.037-.141l-.079 1.998zm7.518 1.224c1.228.362 2.42.8 3.574 1.308l.806-1.83a31.725 31.725 0 00-3.814-1.396l-.566 1.918zM28.1 7.318a31.356 31.356 0 012.998 2.355l1.328-1.496a33.38 33.38 0 00-3.189-2.505L28.1 7.318zm6.935 6.516c.788.99 1.53 2.03 2.22 3.117l1.688-1.072a37.857 37.857 0 00-2.344-3.291l-1.564 1.246zm4.932 8.196a41.39 41.39 0 011.388 3.581l1.896-.636a43.39 43.39 0 00-1.456-3.754l-1.828.809zm2.858 9.161a46.82 46.82 0 01.58 3.81l1.989-.22a48.733 48.733 0 00-.606-3.973l-1.963.383zm.876 9.586a51.717 51.717 0 01-.173 3.858l1.993.163c.111-1.349.17-2.685.18-4.007l-2-.014zm-.958 9.601a56.67 56.67 0 01-.856 3.77l1.934.51a58.26 58.26 0 00.886-3.904l-1.964-.376zm-2.614 9.319a62.074 62.074 0 01-1.458 3.58l1.828.812a64.114 64.114 0 001.505-3.697l-1.875-.696zm-4.054 8.786a68.65 68.65 0 01-1.98 3.339l1.69 1.068a70.688 70.688 0 002.038-3.436l-1.748-.971zm-5.288 8.133a76.743 76.743 0 01-2.407 3.043l1.537 1.28a78.657 78.657 0 002.47-3.123l-1.6-1.2zm-6.303 7.392a86.408 86.408 0 01-2.748 2.73l1.378 1.45a88.4 88.4 0 002.81-2.793l-1.44-1.387zm-7.109 6.614a97.88 97.88 0 01-3.041 2.441l1.22 1.584a99.902 99.902 0 003.104-2.49l-1.283-1.535zM9.6 96.502a111.2 111.2 0 01-3.262 2.149l1.07 1.689a113.71 113.71 0 003.322-2.188l-1.13-1.65z" fill="#7FEEDF"/></svg>